<?xml version="1.0" encoding="UTF-8" standalone="no"?><svg xmlns="http://www.w3.org/2000/svg" xmlns:xlink="http://www.w3.org/1999/xlink" contentScriptType="application/ecmascript" contentStyleType="text/css" height="910px" preserveAspectRatio="none" style="width:761px;height:910px;background:#FFFFFF;" version="1.1" viewBox="0 0 761 910" width="761px" zoomAndPan="magnify"><defs><filter height="300%" id="f1xj3mhr88dy7o" width="300%" x="-1" y="-1"><feGaussianBlur result="blurOut" stdDeviation="2.0"/><feColorMatrix in="blurOut" result="blurOut2" type="matrix" values="0 0 0 0 0 0 0 0 0 0 0 0 0 0 0 0 0 0 .4 0"/><feOffset dx="4.0" dy="4.0" in="blurOut2" result="blurOut3"/><feBlend in="SourceGraphic" in2="blurOut3" mode="normal"/></filter></defs><g><text fill="#000000" font-family="sans-serif" font-size="18" lengthAdjust="spacing" textLength="157" x="301" y="26.708">TicTacToe.start()</text><ellipse cx="369" cy="40.9531" fill="#000000" filter="url(#f1xj3mhr88dy7o)" rx="10" ry="10" style="stroke:none;stroke-width:1.0;"/><rect fill="#FEFECE" filter="url(#f1xj3mhr88dy7o)" height="33.9688" rx="12.5" ry="12.5" style="stroke:#A80036;stroke-width:1.5;" width="250" x="244" y="70.9531"/><text fill="#000000" font-family="sans-serif" font-size="12" lengthAdjust="spacing" textLength="230" x="254" y="92.0918">currentPlayer = controller.nextPlayer()</text><rect fill="#FEFECE" filter="url(#f1xj3mhr88dy7o)" height="61.9063" rx="12.5" ry="12.5" style="stroke:#A80036;stroke-width:1.5;" width="262" x="238" y="124.9219"/><text fill="#000000" font-family="sans-serif" font-size="12" lengthAdjust="spacing" textLength="242" x="248" y="146.0605">boardState = controller.getBoardstate()</text><text fill="#000000" font-family="sans-serif" font-size="12" lengthAdjust="spacing" textLength="0" x="252" y="160.0293"/><text fill="#000000" font-family="sans-serif" font-size="12" lengthAdjust="spacing" textLength="96" x="248" y="173.998">Print boardState</text><polygon fill="#FEFECE" filter="url(#f1xj3mhr88dy7o)" points="307.5,267.6328,430.5,267.6328,442.5,279.6328,430.5,291.6328,307.5,291.6328,295.5,279.6328,307.5,267.6328" style="stroke:#A80036;stroke-width:1.5;"/><text fill="#000000" font-family="sans-serif" font-size="11" lengthAdjust="spacing" textLength="123" x="307.5" y="283.4409">currentPlayer is auto?</text><text fill="#000000" font-family="sans-serif" font-size="11" lengthAdjust="spacing" textLength="21" x="274.5" y="277.0386">yes</text><text fill="#000000" font-family="sans-serif" font-size="11" lengthAdjust="spacing" textLength="14" x="442.5" y="277.0386">no</text><rect fill="#FEFECE" filter="url(#f1xj3mhr88dy7o)" height="33.9688" rx="12.5" ry="12.5" style="stroke:#A80036;stroke-width:1.5;" width="300" x="45" y="301.6328"/><text fill="#000000" font-family="sans-serif" font-size="12" lengthAdjust="spacing" textLength="280" x="55" y="322.7715">status = controller.doAutoMove(currentPlayer)</text><rect fill="#FEFECE" filter="url(#f1xj3mhr88dy7o)" height="33.9688" rx="12.5" ry="12.5" style="stroke:#A80036;stroke-width:1.5;" width="192" x="447" y="301.6328"/><text fill="#000000" font-family="sans-serif" font-size="12" lengthAdjust="spacing" textLength="172" x="457" y="322.7715">move = Read line from stdin</text><rect fill="#FEFECE" filter="url(#f1xj3mhr88dy7o)" height="33.9688" rx="12.5" ry="12.5" style="stroke:#A80036;stroke-width:1.5;" width="356" x="365" y="355.6016"/><text fill="#000000" font-family="sans-serif" font-size="12" lengthAdjust="spacing" textLength="336" x="375" y="376.7402">status = controller.doManualMove(currentPlayer, move)</text><polygon fill="#FEFECE" filter="url(#f1xj3mhr88dy7o)" points="369,395.5703,381,407.5703,369,419.5703,357,407.5703,369,395.5703" style="stroke:#A80036;stroke-width:1.5;"/><rect fill="#FEFECE" filter="url(#f1xj3mhr88dy7o)" height="33.9688" rx="12.5" ry="12.5" style="stroke:#A80036;stroke-width:1.5;" width="145" x="296.5" y="439.5703"/><text fill="#000000" font-family="sans-serif" font-size="12" lengthAdjust="spacing" textLength="125" x="306.5" y="460.709">Print status message</text><rect fill="#FEFECE" filter="url(#f1xj3mhr88dy7o)" height="61.9063" rx="12.5" ry="12.5" style="stroke:#A80036;stroke-width:1.5;" width="250" x="244" y="541.9414"/><text fill="#000000" font-family="sans-serif" font-size="12" lengthAdjust="spacing" textLength="109" x="254" y="563.0801">Switch player with</text><text fill="#000000" font-family="sans-serif" font-size="12" lengthAdjust="spacing" textLength="0" x="258" y="577.0488"/><text fill="#000000" font-family="sans-serif" font-size="12" lengthAdjust="spacing" textLength="230" x="254" y="591.0176">currentPlayer = controller.nextPlayer()</text><polygon fill="#FEFECE" filter="url(#f1xj3mhr88dy7o)" points="311,493.5391,427,493.5391,439,505.5391,427,517.5391,311,517.5391,299,505.5391,311,493.5391" style="stroke:#A80036;stroke-width:1.5;"/><text fill="#000000" font-family="sans-serif" font-size="11" lengthAdjust="spacing" textLength="21" x="373" y="527.7495">yes</text><text fill="#000000" font-family="sans-serif" font-size="11" lengthAdjust="spacing" textLength="116" x="311" y="509.3472">status is Token Set?</text><polygon fill="#FEFECE" filter="url(#f1xj3mhr88dy7o)" points="369,623.8477,381,635.8477,369,647.8477,357,635.8477,369,623.8477" style="stroke:#A80036;stroke-width:1.5;"/><rect fill="#FEFECE" filter="url(#f1xj3mhr88dy7o)" height="33.9688" rx="12.5" ry="12.5" style="stroke:#A80036;stroke-width:1.5;" width="109" x="314.5" y="716.25"/><text fill="#000000" font-family="sans-serif" font-size="12" lengthAdjust="spacing" textLength="89" x="324.5" y="737.3887">finished = true</text><polygon fill="#FEFECE" filter="url(#f1xj3mhr88dy7o)" points="272.5,667.8477,465.5,667.8477,477.5,679.8477,465.5,691.8477,272.5,691.8477,260.5,679.8477,272.5,667.8477" style="stroke:#A80036;stroke-width:1.5;"/><text fill="#000000" font-family="sans-serif" font-size="11" lengthAdjust="spacing" textLength="21" x="373" y="702.0581">yes</text><text fill="#000000" font-family="sans-serif" font-size="11" lengthAdjust="spacing" textLength="193" x="272.5" y="683.6558">status is Tied or X Wins or O Wins</text><polygon fill="#FEFECE" filter="url(#f1xj3mhr88dy7o)" points="369,770.2188,381,782.2188,369,794.2188,357,782.2188,369,770.2188" style="stroke:#A80036;stroke-width:1.5;"/><rect fill="#FEFECE" filter="url(#f1xj3mhr88dy7o)" height="61.9063" rx="12.5" ry="12.5" style="stroke:#A80036;stroke-width:1.5;" width="262" x="238" y="814.2188"/><text fill="#000000" font-family="sans-serif" font-size="12" lengthAdjust="spacing" textLength="242" x="248" y="835.3574">boardState = controller.getBoardstate()</text><text fill="#000000" font-family="sans-serif" font-size="12" lengthAdjust="spacing" textLength="0" x="252" y="849.3262"/><text fill="#000000" font-family="sans-serif" font-size="12" lengthAdjust="spacing" textLength="96" x="248" y="863.2949">Print boardState</text><polygon fill="#FEFECE" filter="url(#f1xj3mhr88dy7o)" points="332.5,206.8281,405.5,206.8281,417.5,218.8281,405.5,230.8281,332.5,230.8281,320.5,218.8281,332.5,206.8281" style="stroke:#A80036;stroke-width:1.5;"/><text fill="#000000" font-family="sans-serif" font-size="11" lengthAdjust="spacing" textLength="21" x="373" y="241.0386">yes</text><text fill="#000000" font-family="sans-serif" font-size="11" lengthAdjust="spacing" textLength="73" x="332.5" y="222.6362">not finished?</text><text fill="#000000" font-family="sans-serif" font-size="11" lengthAdjust="spacing" textLength="14" x="306.5" y="216.2339">no</text><ellipse cx="24" cy="265.8281" fill="#FFFFFF" filter="url(#f1xj3mhr88dy7o)" rx="11" ry="11" style="stroke:#000000;stroke-width:1.0;"/><ellipse cx="24" cy="265.8281" fill="#000000" rx="6" ry="6" style="stroke:#7F7F7F;stroke-width:1.0;"/><line style="stroke:#A80036;stroke-width:1.5;" x1="369" x2="369" y1="50.9531" y2="70.9531"/><polygon fill="#A80036" points="365,60.9531,369,70.9531,373,60.9531,369,64.9531" style="stroke:#A80036;stroke-width:1.0;"/><line style="stroke:#A80036;stroke-width:1.5;" x1="369" x2="369" y1="104.9219" y2="124.9219"/><polygon fill="#A80036" points="365,114.9219,369,124.9219,373,114.9219,369,118.9219" style="stroke:#A80036;stroke-width:1.0;"/><line style="stroke:#A80036;stroke-width:1.5;" x1="543" x2="543" y1="335.6016" y2="355.6016"/><polygon fill="#A80036" points="539,345.6016,543,355.6016,547,345.6016,543,349.6016" style="stroke:#A80036;stroke-width:1.0;"/><line style="stroke:#A80036;stroke-width:1.5;" x1="295.5" x2="195" y1="279.6328" y2="279.6328"/><line style="stroke:#A80036;stroke-width:1.5;" x1="195" x2="195" y1="279.6328" y2="301.6328"/><polygon fill="#A80036" points="191,291.6328,195,301.6328,199,291.6328,195,295.6328" style="stroke:#A80036;stroke-width:1.0;"/><line style="stroke:#A80036;stroke-width:1.5;" x1="442.5" x2="543" y1="279.6328" y2="279.6328"/><line style="stroke:#A80036;stroke-width:1.5;" x1="543" x2="543" y1="279.6328" y2="301.6328"/><polygon fill="#A80036" points="539,291.6328,543,301.6328,547,291.6328,543,295.6328" style="stroke:#A80036;stroke-width:1.0;"/><line style="stroke:#A80036;stroke-width:1.5;" x1="195" x2="195" y1="335.6016" y2="407.5703"/><line style="stroke:#A80036;stroke-width:1.5;" x1="195" x2="357" y1="407.5703" y2="407.5703"/><polygon fill="#A80036" points="347,403.5703,357,407.5703,347,411.5703,351,407.5703" style="stroke:#A80036;stroke-width:1.0;"/><line style="stroke:#A80036;stroke-width:1.5;" x1="543" x2="543" y1="389.5703" y2="407.5703"/><line style="stroke:#A80036;stroke-width:1.5;" x1="543" x2="381" y1="407.5703" y2="407.5703"/><polygon fill="#A80036" points="391,403.5703,381,407.5703,391,411.5703,387,407.5703" style="stroke:#A80036;stroke-width:1.0;"/><line style="stroke:#A80036;stroke-width:1.5;" x1="369" x2="369" y1="419.5703" y2="439.5703"/><polygon fill="#A80036" points="365,429.5703,369,439.5703,373,429.5703,369,433.5703" style="stroke:#A80036;stroke-width:1.0;"/><line style="stroke:#A80036;stroke-width:1.5;" x1="369" x2="369" y1="517.5391" y2="541.9414"/><polygon fill="#A80036" points="365,531.9414,369,541.9414,373,531.9414,369,535.9414" style="stroke:#A80036;stroke-width:1.0;"/><line style="stroke:#A80036;stroke-width:1.5;" x1="439" x2="504" y1="505.5391" y2="505.5391"/><polygon fill="#A80036" points="500,562.8945,504,572.8945,508,562.8945,504,566.8945" style="stroke:#A80036;stroke-width:1.5;"/><line style="stroke:#A80036;stroke-width:1.5;" x1="504" x2="504" y1="505.5391" y2="635.8477"/><line style="stroke:#A80036;stroke-width:1.5;" x1="504" x2="381" y1="635.8477" y2="635.8477"/><polygon fill="#A80036" points="391,631.8477,381,635.8477,391,639.8477,387,635.8477" style="stroke:#A80036;stroke-width:1.0;"/><line style="stroke:#A80036;stroke-width:1.5;" x1="369" x2="369" y1="603.8477" y2="623.8477"/><polygon fill="#A80036" points="365,613.8477,369,623.8477,373,613.8477,369,617.8477" style="stroke:#A80036;stroke-width:1.0;"/><line style="stroke:#A80036;stroke-width:1.5;" x1="369" x2="369" y1="473.5391" y2="493.5391"/><polygon fill="#A80036" points="365,483.5391,369,493.5391,373,483.5391,369,487.5391" style="stroke:#A80036;stroke-width:1.0;"/><line style="stroke:#A80036;stroke-width:1.5;" x1="369" x2="369" y1="691.8477" y2="716.25"/><polygon fill="#A80036" points="365,706.25,369,716.25,373,706.25,369,710.25" style="stroke:#A80036;stroke-width:1.0;"/><line style="stroke:#A80036;stroke-width:1.5;" x1="477.5" x2="489.5" y1="679.8477" y2="679.8477"/><polygon fill="#A80036" points="485.5,723.2344,489.5,733.2344,493.5,723.2344,489.5,727.2344" style="stroke:#A80036;stroke-width:1.5;"/><line style="stroke:#A80036;stroke-width:1.5;" x1="489.5" x2="489.5" y1="679.8477" y2="782.2188"/><line style="stroke:#A80036;stroke-width:1.5;" x1="489.5" x2="381" y1="782.2188" y2="782.2188"/><polygon fill="#A80036" points="391,778.2188,381,782.2188,391,786.2188,387,782.2188" style="stroke:#A80036;stroke-width:1.0;"/><line style="stroke:#A80036;stroke-width:1.5;" x1="369" x2="369" y1="750.2188" y2="770.2188"/><polygon fill="#A80036" points="365,760.2188,369,770.2188,373,760.2188,369,764.2188" style="stroke:#A80036;stroke-width:1.0;"/><line style="stroke:#A80036;stroke-width:1.5;" x1="369" x2="369" y1="647.8477" y2="667.8477"/><polygon fill="#A80036" points="365,657.8477,369,667.8477,373,657.8477,369,661.8477" style="stroke:#A80036;stroke-width:1.0;"/><line style="stroke:#A80036;stroke-width:1.5;" x1="369" x2="369" y1="794.2188" y2="814.2188"/><polygon fill="#A80036" points="365,804.2188,369,814.2188,373,804.2188,369,808.2188" style="stroke:#A80036;stroke-width:1.0;"/><line style="stroke:#A80036;stroke-width:1.5;" x1="369" x2="369" y1="230.8281" y2="267.6328"/><polygon fill="#A80036" points="365,257.6328,369,267.6328,373,257.6328,369,261.6328" style="stroke:#A80036;stroke-width:1.0;"/><line style="stroke:#A80036;stroke-width:1.5;" x1="369" x2="369" y1="876.125" y2="886.125"/><line style="stroke:#A80036;stroke-width:1.5;" x1="369" x2="735" y1="886.125" y2="886.125"/><polygon fill="#A80036" points="731,560.3789,735,550.3789,739,560.3789,735,556.3789" style="stroke:#A80036;stroke-width:1.5;"/><line style="stroke:#A80036;stroke-width:1.5;" x1="735" x2="735" y1="218.8281" y2="886.125"/><line style="stroke:#A80036;stroke-width:1.5;" x1="735" x2="417.5" y1="218.8281" y2="218.8281"/><polygon fill="#A80036" points="427.5,214.8281,417.5,218.8281,427.5,222.8281,423.5,218.8281" style="stroke:#A80036;stroke-width:1.0;"/><line style="stroke:#A80036;stroke-width:1.5;" x1="320.5" x2="24" y1="218.8281" y2="218.8281"/><line style="stroke:#A80036;stroke-width:1.5;" x1="24" x2="24" y1="218.8281" y2="254.8281"/><polygon fill="#A80036" points="20,244.8281,24,254.8281,28,244.8281,24,248.8281" style="stroke:#A80036;stroke-width:1.0;"/><line style="stroke:#A80036;stroke-width:1.5;" x1="369" x2="369" y1="186.8281" y2="206.8281"/><polygon fill="#A80036" points="365,196.8281,369,206.8281,373,196.8281,369,200.8281" style="stroke:#A80036;stroke-width:1.0;"/><!--MD5=[510772a797ce4c9efc1377e6042ded17]
@startuml
title TicTacToe.start() 


start

:currentPlayer = controller.nextPlayer();
:boardState = controller.getBoardstate()\n\nPrint boardState;

while (not finished?)  is (yes)
  if (currentPlayer is auto?) then (yes)
    :status = controller.doAutoMove(currentPlayer);
  else (no)
    :move = Read line from stdin;
    :status = controller.doManualMove(currentPlayer, move);
  endif
  :Print status message;
  if (status is Token Set?) then (yes)
    :Switch player with\n\ncurrentPlayer = controller.nextPlayer();
  endif
  if (status is Tied or X Wins or O Wins) then (yes)
    :finished = true;
  endif
  
  :boardState = controller.getBoardstate()\n\nPrint boardState;
endwhile (no)

stop
@enduml

PlantUML version 1.2021.9beta2(Unknown compile time)
(GPL source distribution)
Java Runtime: Java(TM) SE Runtime Environment
JVM: Java HotSpot(TM) 64-Bit Server VM
Default Encoding: UTF-8
Language: en
Country: US
--></g></svg>