<?xml version="1.0" encoding="UTF-8" standalone="no"?><svg xmlns="http://www.w3.org/2000/svg" xmlns:xlink="http://www.w3.org/1999/xlink" contentScriptType="application/ecmascript" contentStyleType="text/css" height="335px" preserveAspectRatio="none" style="width:394px;height:335px;background:#FFFFFF;" version="1.1" viewBox="0 0 394 335" width="394px" zoomAndPan="magnify"><defs><filter height="300%" id="f1pr7h4os3qppu" width="300%" x="-1" y="-1"><feGaussianBlur result="blurOut" stdDeviation="2.0"/><feColorMatrix in="blurOut" result="blurOut2" type="matrix" values="0 0 0 0 0 0 0 0 0 0 0 0 0 0 0 0 0 0 .4 0"/><feOffset dx="4.0" dy="4.0" in="blurOut2" result="blurOut3"/><feBlend in="SourceGraphic" in2="blurOut3" mode="normal"/></filter></defs><g><text fill="#000000" font-family="sans-serif" font-size="18" lengthAdjust="spacing" textLength="104" x="144" y="26.708">Next Player</text><ellipse cx="194" cy="40.9531" fill="#000000" filter="url(#f1pr7h4os3qppu)" rx="10" ry="10" style="stroke:none;stroke-width:1.0;"/><polygon fill="#FEFECE" filter="url(#f1pr7h4os3qppu)" points="140,70.9531,248,70.9531,260,82.9531,248,94.9531,140,94.9531,128,82.9531,140,70.9531" style="stroke:#A80036;stroke-width:1.5;"/><text fill="#000000" font-family="sans-serif" font-size="11" lengthAdjust="spacing" textLength="108" x="140" y="86.7612">this.currentPlayer1</text><text fill="#000000" font-family="sans-serif" font-size="11" lengthAdjust="spacing" textLength="20" x="108" y="80.3589">yes</text><text fill="#000000" font-family="sans-serif" font-size="11" lengthAdjust="spacing" textLength="14" x="260" y="80.3589">no</text><rect fill="#FEFECE" filter="url(#f1pr7h4os3qppu)" height="33.9688" rx="12.5" ry="12.5" style="stroke:#A80036;stroke-width:1.5;" width="173" x="11" y="104.9531"/><text fill="#000000" font-family="sans-serif" font-size="12" lengthAdjust="spacing" textLength="153" x="21" y="126.0918">current player = player 1</text><rect fill="#FEFECE" filter="url(#f1pr7h4os3qppu)" height="33.9688" rx="12.5" ry="12.5" style="stroke:#A80036;stroke-width:1.5;" width="173" x="204" y="104.9531"/><text fill="#000000" font-family="sans-serif" font-size="12" lengthAdjust="spacing" textLength="153" x="214" y="126.0918">current player = player 2</text><polygon fill="#FEFECE" filter="url(#f1pr7h4os3qppu)" points="194,144.9219,206,156.9219,194,168.9219,182,156.9219,194,144.9219" style="stroke:#A80036;stroke-width:1.5;"/><rect fill="#FEFECE" filter="url(#f1pr7h4os3qppu)" height="33.9688" rx="12.5" ry="12.5" style="stroke:#A80036;stroke-width:1.5;" width="298" x="45" y="188.9219"/><text fill="#000000" font-family="sans-serif" font-size="12" lengthAdjust="spacing" textLength="278" x="55" y="210.0605">this.currentPlayer1 = not(this.currentPlayer1)</text><rect fill="#FEFECE" filter="url(#f1pr7h4os3qppu)" height="33.9688" rx="12.5" ry="12.5" style="stroke:#A80036;stroke-width:1.5;" width="148" x="120" y="242.8906"/><text fill="#000000" font-family="sans-serif" font-size="12" lengthAdjust="spacing" textLength="128" x="130" y="264.0293">return current player</text><ellipse cx="194" cy="307.8594" fill="#FFFFFF" filter="url(#f1pr7h4os3qppu)" rx="11" ry="11" style="stroke:#000000;stroke-width:1.0;"/><ellipse cx="194" cy="307.8594" fill="#000000" rx="6" ry="6" style="stroke:#7F7F7F;stroke-width:1.0;"/><line style="stroke:#A80036;stroke-width:1.5;" x1="128" x2="97.5" y1="82.9531" y2="82.9531"/><line style="stroke:#A80036;stroke-width:1.5;" x1="97.5" x2="97.5" y1="82.9531" y2="104.9531"/><polygon fill="#A80036" points="93.5,94.9531,97.5,104.9531,101.5,94.9531,97.5,98.9531" style="stroke:#A80036;stroke-width:1.0;"/><line style="stroke:#A80036;stroke-width:1.5;" x1="260" x2="290.5" y1="82.9531" y2="82.9531"/><line style="stroke:#A80036;stroke-width:1.5;" x1="290.5" x2="290.5" y1="82.9531" y2="104.9531"/><polygon fill="#A80036" points="286.5,94.9531,290.5,104.9531,294.5,94.9531,290.5,98.9531" style="stroke:#A80036;stroke-width:1.0;"/><line style="stroke:#A80036;stroke-width:1.5;" x1="97.5" x2="97.5" y1="138.9219" y2="156.9219"/><line style="stroke:#A80036;stroke-width:1.5;" x1="97.5" x2="182" y1="156.9219" y2="156.9219"/><polygon fill="#A80036" points="172,152.9219,182,156.9219,172,160.9219,176,156.9219" style="stroke:#A80036;stroke-width:1.0;"/><line style="stroke:#A80036;stroke-width:1.5;" x1="290.5" x2="290.5" y1="138.9219" y2="156.9219"/><line style="stroke:#A80036;stroke-width:1.5;" x1="290.5" x2="206" y1="156.9219" y2="156.9219"/><polygon fill="#A80036" points="216,152.9219,206,156.9219,216,160.9219,212,156.9219" style="stroke:#A80036;stroke-width:1.0;"/><line style="stroke:#A80036;stroke-width:1.5;" x1="194" x2="194" y1="50.9531" y2="70.9531"/><polygon fill="#A80036" points="190,60.9531,194,70.9531,198,60.9531,194,64.9531" style="stroke:#A80036;stroke-width:1.0;"/><line style="stroke:#A80036;stroke-width:1.5;" x1="194" x2="194" y1="168.9219" y2="188.9219"/><polygon fill="#A80036" points="190,178.9219,194,188.9219,198,178.9219,194,182.9219" style="stroke:#A80036;stroke-width:1.0;"/><line style="stroke:#A80036;stroke-width:1.5;" x1="194" x2="194" y1="222.8906" y2="242.8906"/><polygon fill="#A80036" points="190,232.8906,194,242.8906,198,232.8906,194,236.8906" style="stroke:#A80036;stroke-width:1.0;"/><line style="stroke:#A80036;stroke-width:1.5;" x1="194" x2="194" y1="276.8594" y2="296.8594"/><polygon fill="#A80036" points="190,286.8594,194,296.8594,198,286.8594,194,290.8594" style="stroke:#A80036;stroke-width:1.0;"/><!--MD5=[955b7a8a02f993938be6373d43823d89]
@startuml

title Next Player

start

if (this.currentPlayer1) then (yes)
    :current player = player 1;
else (no)
    :current player = player 2;
endif

:this.currentPlayer1 = not(this.currentPlayer1);
:return current player;
stop

@enduml

PlantUML version 1.2021.7(Sun May 23 06:40:07 CST 2021)
(GPL source distribution)
Java Runtime: OpenJDK Runtime Environment
JVM: OpenJDK 64-Bit Server VM
Default Encoding: UTF-8
Language: en
Country: US
--></g></svg>