<?xml version="1.0" encoding="UTF-8" standalone="no"?><svg xmlns="http://www.w3.org/2000/svg" xmlns:xlink="http://www.w3.org/1999/xlink" contentScriptType="application/ecmascript" contentStyleType="text/css" height="543px" preserveAspectRatio="none" style="width:510px;height:543px;background:#FFFFFF;" version="1.1" viewBox="0 0 510 543" width="510px" zoomAndPan="magnify"><defs><filter height="300%" id="f1paam54wz1bvn" width="300%" x="-1" y="-1"><feGaussianBlur result="blurOut" stdDeviation="2.0"/><feColorMatrix in="blurOut" result="blurOut2" type="matrix" values="0 0 0 0 0 0 0 0 0 0 0 0 0 0 0 0 0 0 .4 0"/><feOffset dx="4.0" dy="4.0" in="blurOut2" result="blurOut3"/><feBlend in="SourceGraphic" in2="blurOut3" mode="normal"/></filter></defs><g><text fill="#000000" font-family="sans-serif" font-size="18" lengthAdjust="spacing" textLength="248" x="130" y="26.708">RandomAutoPlayerStrategy</text><ellipse cx="223.5" cy="40.9531" fill="#000000" filter="url(#f1paam54wz1bvn)" rx="10" ry="10" style="stroke:none;stroke-width:1.0;"/><polygon fill="#FEFECE" filter="url(#f1paam54wz1bvn)" points="175.5,70.9531,271.5,70.9531,283.5,82.9531,271.5,94.9531,175.5,94.9531,163.5,82.9531,175.5,70.9531" style="stroke:#A80036;stroke-width:1.5;"/><text fill="#000000" font-family="sans-serif" font-size="11" lengthAdjust="spacing" textLength="96" x="175.5" y="86.7612">boardState is full</text><text fill="#000000" font-family="sans-serif" font-size="11" lengthAdjust="spacing" textLength="20" x="283.5" y="80.3589">yes</text><ellipse cx="325.5" cy="82.9531" fill="#FFFFFF" filter="url(#f1paam54wz1bvn)" rx="11" ry="11" style="stroke:#000000;stroke-width:1.0;"/><ellipse cx="325.5" cy="82.9531" fill="#000000" rx="6" ry="6" style="stroke:#7F7F7F;stroke-width:1.0;"/><polygon fill="#FEFECE" filter="url(#f1paam54wz1bvn)" points="153,114.9531,294,114.9531,306,126.9531,294,138.9531,153,138.9531,141,126.9531,153,114.9531" style="stroke:#A80036;stroke-width:1.5;"/><text fill="#000000" font-family="sans-serif" font-size="11" lengthAdjust="spacing" textLength="141" x="153" y="130.7612">currentPlayer is not auto</text><text fill="#000000" font-family="sans-serif" font-size="11" lengthAdjust="spacing" textLength="20" x="306" y="124.3589">yes</text><ellipse cx="348" cy="126.9531" fill="#FFFFFF" filter="url(#f1paam54wz1bvn)" rx="11" ry="11" style="stroke:#000000;stroke-width:1.0;"/><ellipse cx="348" cy="126.9531" fill="#000000" rx="6" ry="6" style="stroke:#7F7F7F;stroke-width:1.0;"/><rect fill="#FEFECE" filter="url(#f1paam54wz1bvn)" height="47.9375" rx="12.5" ry="12.5" style="stroke:#A80036;stroke-width:1.5;" width="155" x="146" y="212.9219"/><text fill="#000000" font-family="sans-serif" font-size="12" lengthAdjust="spacing" textLength="131" x="156" y="234.0605">row = random([0..2])</text><text fill="#000000" font-family="sans-serif" font-size="12" lengthAdjust="spacing" textLength="126" x="156" y="248.0293">col = random([0..2])</text><polygon fill="#FEFECE" filter="url(#f1paam54wz1bvn)" points="97.5,329.2617,349.5,329.2617,361.5,341.2617,349.5,353.2617,97.5,353.2617,85.5,341.2617,97.5,329.2617" style="stroke:#A80036;stroke-width:1.5;"/><text fill="#000000" font-family="sans-serif" font-size="11" lengthAdjust="spacing" textLength="252" x="97.5" y="345.0698">boardState.getPosition(&lt;row, col&gt;) is empty</text><text fill="#000000" font-family="sans-serif" font-size="11" lengthAdjust="spacing" textLength="20" x="65.5" y="338.6675">yes</text><text fill="#000000" font-family="sans-serif" font-size="11" lengthAdjust="spacing" textLength="14" x="361.5" y="338.6675">no</text><rect fill="#FEFECE" filter="url(#f1paam54wz1bvn)" height="33.9688" rx="12.5" ry="12.5" style="stroke:#A80036;stroke-width:1.5;" width="129" x="11" y="363.2617"/><text fill="#000000" font-family="sans-serif" font-size="12" lengthAdjust="spacing" textLength="109" x="21" y="384.4004">return &lt;row, col&gt;</text><ellipse cx="75.5" cy="428.2305" fill="#FFFFFF" filter="url(#f1paam54wz1bvn)" rx="11" ry="11" style="stroke:#000000;stroke-width:1.0;"/><ellipse cx="75.5" cy="428.2305" fill="#000000" rx="6" ry="6" style="stroke:#7F7F7F;stroke-width:1.0;"/><rect fill="#FEFECE" filter="url(#f1paam54wz1bvn)" height="33.9688" rx="12.5" ry="12.5" style="stroke:#A80036;stroke-width:1.5;" width="161" x="291" y="363.2617"/><text fill="#000000" font-family="sans-serif" font-size="12" lengthAdjust="spacing" textLength="141" x="301" y="384.4004">visited[row][col] = true</text><polygon fill="#FEFECE" filter="url(#f1paam54wz1bvn)" points="167.5,280.8594,279.5,280.8594,291.5,292.8594,279.5,304.8594,167.5,304.8594,155.5,292.8594,167.5,280.8594" style="stroke:#A80036;stroke-width:1.5;"/><text fill="#000000" font-family="sans-serif" font-size="11" lengthAdjust="spacing" textLength="20" x="227.5" y="315.0698">yes</text><text fill="#000000" font-family="sans-serif" font-size="11" lengthAdjust="spacing" textLength="112" x="167.5" y="296.6675">not visited[row][col]</text><polygon fill="#FEFECE" filter="url(#f1paam54wz1bvn)" points="223.5,459.2305,235.5,471.2305,223.5,483.2305,211.5,471.2305,223.5,459.2305" style="stroke:#A80036;stroke-width:1.5;"/><rect fill="#FEFECE" filter="url(#f1paam54wz1bvn)" height="33.9688" rx="12.5" ry="12.5" style="stroke:#A80036;stroke-width:1.5;" width="86" x="180.5" y="158.9531"/><text fill="#000000" font-family="sans-serif" font-size="12" lengthAdjust="spacing" textLength="66" x="190.5" y="180.0918">while(true)</text><line style="stroke:#A80036;stroke-width:1.5;" x1="223.5" x2="223.5" y1="94.9531" y2="114.9531"/><polygon fill="#A80036" points="219.5,104.9531,223.5,114.9531,227.5,104.9531,223.5,108.9531" style="stroke:#A80036;stroke-width:1.0;"/><line style="stroke:#A80036;stroke-width:1.5;" x1="283.5" x2="314.5" y1="82.9531" y2="82.9531"/><polygon fill="#A80036" points="304.5,78.9531,314.5,82.9531,304.5,86.9531,308.5,82.9531" style="stroke:#A80036;stroke-width:1.0;"/><line style="stroke:#A80036;stroke-width:1.5;" x1="223.5" x2="223.5" y1="50.9531" y2="70.9531"/><polygon fill="#A80036" points="219.5,60.9531,223.5,70.9531,227.5,60.9531,223.5,64.9531" style="stroke:#A80036;stroke-width:1.0;"/><line style="stroke:#A80036;stroke-width:1.5;" x1="223.5" x2="223.5" y1="138.9531" y2="158.9531"/><polygon fill="#A80036" points="219.5,148.9531,223.5,158.9531,227.5,148.9531,223.5,152.9531" style="stroke:#A80036;stroke-width:1.0;"/><line style="stroke:#A80036;stroke-width:1.5;" x1="306" x2="337" y1="126.9531" y2="126.9531"/><polygon fill="#A80036" points="327,122.9531,337,126.9531,327,130.9531,331,126.9531" style="stroke:#A80036;stroke-width:1.0;"/><line style="stroke:#A80036;stroke-width:1.5;" x1="75.5" x2="75.5" y1="397.2305" y2="417.2305"/><polygon fill="#A80036" points="71.5,407.2305,75.5,417.2305,79.5,407.2305,75.5,411.2305" style="stroke:#A80036;stroke-width:1.0;"/><line style="stroke:#A80036;stroke-width:1.5;" x1="85.5" x2="75.5" y1="341.2617" y2="341.2617"/><line style="stroke:#A80036;stroke-width:1.5;" x1="75.5" x2="75.5" y1="341.2617" y2="363.2617"/><polygon fill="#A80036" points="71.5,353.2617,75.5,363.2617,79.5,353.2617,75.5,357.2617" style="stroke:#A80036;stroke-width:1.0;"/><line style="stroke:#A80036;stroke-width:1.5;" x1="361.5" x2="371.5" y1="341.2617" y2="341.2617"/><line style="stroke:#A80036;stroke-width:1.5;" x1="371.5" x2="371.5" y1="341.2617" y2="363.2617"/><polygon fill="#A80036" points="367.5,353.2617,371.5,363.2617,375.5,353.2617,371.5,357.2617" style="stroke:#A80036;stroke-width:1.0;"/><line style="stroke:#A80036;stroke-width:1.5;" x1="371.5" x2="371.5" y1="397.2305" y2="444.2305"/><line style="stroke:#A80036;stroke-width:1.5;" x1="371.5" x2="223.5" y1="444.2305" y2="444.2305"/><line style="stroke:#A80036;stroke-width:1.5;" x1="223.5" x2="223.5" y1="444.2305" y2="459.2305"/><polygon fill="#A80036" points="219.5,449.2305,223.5,459.2305,227.5,449.2305,223.5,453.2305" style="stroke:#A80036;stroke-width:1.0;"/><line style="stroke:#A80036;stroke-width:1.5;" x1="223.5" x2="223.5" y1="304.8594" y2="329.2617"/><polygon fill="#A80036" points="219.5,319.2617,223.5,329.2617,227.5,319.2617,223.5,323.2617" style="stroke:#A80036;stroke-width:1.0;"/><line style="stroke:#A80036;stroke-width:1.5;" x1="291.5" x2="466" y1="292.8594" y2="292.8594"/><polygon fill="#A80036" points="462,384.7461,466,394.7461,470,384.7461,466,388.7461" style="stroke:#A80036;stroke-width:1.5;"/><line style="stroke:#A80036;stroke-width:1.5;" x1="466" x2="466" y1="292.8594" y2="471.2305"/><line style="stroke:#A80036;stroke-width:1.5;" x1="466" x2="235.5" y1="471.2305" y2="471.2305"/><polygon fill="#A80036" points="245.5,467.2305,235.5,471.2305,245.5,475.2305,241.5,471.2305" style="stroke:#A80036;stroke-width:1.0;"/><line style="stroke:#A80036;stroke-width:1.5;" x1="223.5" x2="223.5" y1="260.8594" y2="280.8594"/><polygon fill="#A80036" points="219.5,270.8594,223.5,280.8594,227.5,270.8594,223.5,274.8594" style="stroke:#A80036;stroke-width:1.0;"/><line style="stroke:#A80036;stroke-width:1.5;" x1="223.5" x2="223.5" y1="192.9219" y2="212.9219"/><polygon fill="#A80036" points="219.5,202.9219,223.5,212.9219,227.5,202.9219,223.5,206.9219" style="stroke:#A80036;stroke-width:1.0;"/><line style="stroke:#A80036;stroke-width:1.5;" x1="223.5" x2="223.5" y1="483.2305" y2="531.2305"/><line style="stroke:#A80036;stroke-width:1.5;" x1="223.5" x2="484" y1="531.2305" y2="531.2305"/><polygon fill="#A80036" points="480,354.7852,484,344.7852,488,354.7852,484,350.7852" style="stroke:#A80036;stroke-width:1.5;"/><line style="stroke:#A80036;stroke-width:1.5;" x1="484" x2="484" y1="175.9375" y2="531.2305"/><line style="stroke:#A80036;stroke-width:1.5;" x1="484" x2="266.5" y1="175.9375" y2="175.9375"/><polygon fill="#A80036" points="276.5,171.9375,266.5,175.9375,276.5,179.9375,272.5,175.9375" style="stroke:#A80036;stroke-width:1.0;"/><!--MD5=[2833c209833cb4ddad4484df820f2200]
@startuml

title RandomAutoPlayerStrategy


start

if (boardState is full) then (yes)
    stop
endif

if (currentPlayer is not auto) then (yes)
    stop
endif

repeat :while(true);
    :row = random([0..2]) \ncol = random([0..2]);
    if (not visited[row][col]) then (yes)
        if (boardState.getPosition(<row, col>) is empty) then (yes)
            :return <row, col>;
            stop
        else (no)
            :visited[row][col] = true;
        endif
    endif
repeat while
@enduml

PlantUML version 1.2021.7(Sun May 23 06:40:07 CST 2021)
(GPL source distribution)
Java Runtime: OpenJDK Runtime Environment
JVM: OpenJDK 64-Bit Server VM
Default Encoding: UTF-8
Language: en
Country: US
--></g></svg>