<?xml version="1.0" encoding="UTF-8" standalone="no"?><svg xmlns="http://www.w3.org/2000/svg" xmlns:xlink="http://www.w3.org/1999/xlink" contentScriptType="application/ecmascript" contentStyleType="text/css" height="1341px" preserveAspectRatio="none" style="width:1766px;height:1341px;background:#FFFFFF;" version="1.1" viewBox="0 0 1766 1341" width="1766px" zoomAndPan="magnify"><defs><filter height="300%" id="f18pq97bhgify9" width="300%" x="-1" y="-1"><feGaussianBlur result="blurOut" stdDeviation="2.0"/><feColorMatrix in="blurOut" result="blurOut2" type="matrix" values="0 0 0 0 0 0 0 0 0 0 0 0 0 0 0 0 0 0 .4 0"/><feOffset dx="4.0" dy="4.0" in="blurOut2" result="blurOut3"/><feBlend in="SourceGraphic" in2="blurOut3" mode="normal"/></filter></defs><g><text fill="#000000" font-family="sans-serif" font-size="18" lengthAdjust="spacing" textLength="195" x="787.75" y="28.708">TicTacToe start game</text><rect fill="#FFFFFF" filter="url(#f18pq97bhgify9)" height="1093.8672" style="stroke:#A80036;stroke-width:1.0;" width="10" x="91" y="154.3828"/><rect fill="#FFFFFF" filter="url(#f18pq97bhgify9)" height="986.6016" style="stroke:#A80036;stroke-width:1.0;" width="10" x="222" y="193.5156"/><rect fill="#FFFFFF" filter="url(#f18pq97bhgify9)" height="30" style="stroke:#A80036;stroke-width:1.0;" width="10" x="222" y="1209.25"/><rect fill="#FFFFFF" filter="url(#f18pq97bhgify9)" height="922.1719" style="stroke:#A80036;stroke-width:1.0;" width="10" x="531" y="228.8125"/><rect fill="#FFFFFF" filter="url(#f18pq97bhgify9)" height="114.5625" style="stroke:#A80036;stroke-width:1.0;" width="10" x="536" y="265.9453"/><rect fill="#FFFFFF" filter="url(#f18pq97bhgify9)" height="114.5625" style="stroke:#A80036;stroke-width:1.0;" width="10" x="536" y="424.6406"/><rect fill="#FFFFFF" filter="url(#f18pq97bhgify9)" height="120.6289" style="stroke:#A80036;stroke-width:1.0;" width="10" x="536" y="589.4023"/><rect fill="#FFFFFF" filter="url(#f18pq97bhgify9)" height="114.5625" style="stroke:#A80036;stroke-width:1.0;" width="10" x="536" y="754.1641"/><rect fill="#FFFFFF" filter="url(#f18pq97bhgify9)" height="114.5625" style="stroke:#A80036;stroke-width:1.0;" width="10" x="536" y="912.8594"/><rect fill="#FFFFFF" filter="url(#f18pq97bhgify9)" height="35.2969" style="stroke:#A80036;stroke-width:1.0;" width="10" x="755" y="310.0781"/><rect fill="#FFFFFF" filter="url(#f18pq97bhgify9)" height="35.2969" style="stroke:#A80036;stroke-width:1.0;" width="10" x="925" y="468.7734"/><rect fill="#FFFFFF" filter="url(#f18pq97bhgify9)" height="35.2969" style="stroke:#A80036;stroke-width:1.0;" width="10" x="1105" y="639.6016"/><rect fill="#FFFFFF" filter="url(#f18pq97bhgify9)" height="35.2969" style="stroke:#A80036;stroke-width:1.0;" width="10" x="1309" y="798.2969"/><rect fill="#FFFFFF" filter="url(#f18pq97bhgify9)" height="35.2969" style="stroke:#A80036;stroke-width:1.0;" width="10" x="1492" y="956.9922"/><rect fill="#FFFFFF" filter="url(#f18pq97bhgify9)" height="48.2969" style="stroke:#A80036;stroke-width:1.0;" width="10" x="1674.5" y="1073.5547"/><line style="stroke:#A80036;stroke-width:1.0;stroke-dasharray:5.0,5.0;" x1="24" x2="24" y1="123.25" y2="1257.25"/><line style="stroke:#A80036;stroke-width:1.0;stroke-dasharray:5.0,5.0;" x1="96" x2="96" y1="123.25" y2="1257.25"/><line style="stroke:#A80036;stroke-width:1.0;stroke-dasharray:5.0,5.0;" x1="227" x2="227" y1="195.0313" y2="1257.25"/><line style="stroke:#A80036;stroke-width:1.0;stroke-dasharray:5.0,5.0;" x1="536" x2="536" y1="123.25" y2="1257.25"/><line style="stroke:#A80036;stroke-width:1.0;stroke-dasharray:5.0,5.0;" x1="759.5" x2="759.5" y1="311.5938" y2="1257.25"/><line style="stroke:#A80036;stroke-width:1.0;stroke-dasharray:5.0,5.0;" x1="929.5" x2="929.5" y1="470.2891" y2="1257.25"/><line style="stroke:#A80036;stroke-width:1.0;stroke-dasharray:5.0,5.0;" x1="1109.5" x2="1109.5" y1="641.1172" y2="1257.25"/><line style="stroke:#A80036;stroke-width:1.0;stroke-dasharray:5.0,5.0;" x1="1313.5" x2="1313.5" y1="799.8125" y2="1257.25"/><line style="stroke:#A80036;stroke-width:1.0;stroke-dasharray:5.0,5.0;" x1="1496.5" x2="1496.5" y1="958.5078" y2="1257.25"/><line style="stroke:#A80036;stroke-width:1.0;stroke-dasharray:5.0,5.0;" x1="1679.5" x2="1679.5" y1="1081.5703" y2="1257.25"/><text fill="#000000" font-family="sans-serif" font-size="14" lengthAdjust="spacing" textLength="32" x="5" y="119.9482">User</text><ellipse cx="24" cy="49.9531" fill="#FEFECE" filter="url(#f18pq97bhgify9)" rx="8" ry="8" style="stroke:#A80036;stroke-width:2.0;"/><path d="M24,57.9531 L24,84.9531 M11,65.9531 L37,65.9531 M24,84.9531 L11,99.9531 M24,84.9531 L37,99.9531 " fill="none" filter="url(#f18pq97bhgify9)" style="stroke:#A80036;stroke-width:2.0;"/><text fill="#000000" font-family="sans-serif" font-size="14" lengthAdjust="spacing" textLength="32" x="5" y="1269.2451">User</text><ellipse cx="24" cy="1282.5469" fill="#FEFECE" filter="url(#f18pq97bhgify9)" rx="8" ry="8" style="stroke:#A80036;stroke-width:2.0;"/><path d="M24,1290.5469 L24,1317.5469 M11,1298.5469 L37,1298.5469 M24,1317.5469 L11,1332.5469 M24,1317.5469 L37,1332.5469 " fill="none" filter="url(#f18pq97bhgify9)" style="stroke:#A80036;stroke-width:2.0;"/><text fill="#000000" font-family="sans-serif" font-size="14" lengthAdjust="spacing" textLength="74" x="56" y="119.9482">TicTacToe</text><path d="M75.5,78.9531 L75.5,102.9531 M75.5,90.9531 L92.5,90.9531 " fill="none" filter="url(#f18pq97bhgify9)" style="stroke:#A80036;stroke-width:2.0;"/><ellipse cx="104.5" cy="90.9531" fill="#FEFECE" filter="url(#f18pq97bhgify9)" rx="12" ry="12" style="stroke:#A80036;stroke-width:2.0;"/><text fill="#000000" font-family="sans-serif" font-size="14" lengthAdjust="spacing" textLength="74" x="56" y="1269.2451">TicTacToe</text><path d="M75.5,1276.5469 L75.5,1300.5469 M75.5,1288.5469 L92.5,1288.5469 " fill="none" filter="url(#f18pq97bhgify9)" style="stroke:#A80036;stroke-width:2.0;"/><ellipse cx="104.5" cy="1288.5469" fill="#FEFECE" filter="url(#f18pq97bhgify9)" rx="12" ry="12" style="stroke:#A80036;stroke-width:2.0;"/><rect fill="#FEFECE" filter="url(#f18pq97bhgify9)" height="30.2969" style="stroke:#A80036;stroke-width:1.5;" width="88" x="181" y="1256.25"/><text fill="#000000" font-family="sans-serif" font-size="14" lengthAdjust="spacing" textLength="74" x="188" y="1276.2451">TicTacToe</text><rect fill="#FEFECE" filter="url(#f18pq97bhgify9)" height="30.2969" style="stroke:#A80036;stroke-width:1.5;" width="150" x="459" y="87.9531"/><text fill="#000000" font-family="sans-serif" font-size="14" lengthAdjust="spacing" textLength="136" x="466" y="107.9482">ComponentFactory</text><rect fill="#FEFECE" filter="url(#f18pq97bhgify9)" height="30.2969" style="stroke:#A80036;stroke-width:1.5;" width="150" x="459" y="1256.25"/><text fill="#000000" font-family="sans-serif" font-size="14" lengthAdjust="spacing" textLength="136" x="466" y="1276.2451">ComponentFactory</text><rect fill="#FEFECE" filter="url(#f18pq97bhgify9)" height="30.2969" style="stroke:#A80036;stroke-width:1.5;" width="191" x="662.5" y="1256.25"/><text fill="#000000" font-family="sans-serif" font-size="14" lengthAdjust="spacing" textLength="177" x="669.5" y="1276.2451">DefaultManualMoveSpec</text><rect fill="#FEFECE" filter="url(#f18pq97bhgify9)" height="30.2969" style="stroke:#A80036;stroke-width:1.5;" width="121" x="867.5" y="1256.25"/><text fill="#000000" font-family="sans-serif" font-size="14" lengthAdjust="spacing" textLength="107" x="874.5" y="1276.2451">CountingBoard</text><rect fill="#FEFECE" filter="url(#f18pq97bhgify9)" height="30.2969" style="stroke:#A80036;stroke-width:1.5;" width="211" x="1002.5" y="1256.25"/><text fill="#000000" font-family="sans-serif" font-size="14" lengthAdjust="spacing" textLength="197" x="1009.5" y="1276.2451">RandomAutoPlayerStrategy</text><rect fill="#FEFECE" filter="url(#f18pq97bhgify9)" height="30.2969" style="stroke:#A80036;stroke-width:1.5;" width="169" x="1227.5" y="1256.25"/><text fill="#000000" font-family="sans-serif" font-size="14" lengthAdjust="spacing" textLength="155" x="1234.5" y="1276.2451">player1:DefaultPlayer</text><rect fill="#FEFECE" filter="url(#f18pq97bhgify9)" height="30.2969" style="stroke:#A80036;stroke-width:1.5;" width="169" x="1410.5" y="1256.25"/><text fill="#000000" font-family="sans-serif" font-size="14" lengthAdjust="spacing" textLength="155" x="1417.5" y="1276.2451">player2:DefaultPlayer</text><text fill="#000000" font-family="sans-serif" font-size="14" lengthAdjust="spacing" textLength="166" x="1593.5" y="1269.2451">DefaultGameController</text><ellipse cx="1679.5" cy="1288.5469" fill="#FEFECE" filter="url(#f18pq97bhgify9)" rx="12" ry="12" style="stroke:#A80036;stroke-width:2.0;"/><polygon fill="#A80036" points="1675.5,1276.5469,1681.5,1271.5469,1679.5,1276.5469,1681.5,1281.5469,1675.5,1276.5469" style="stroke:#A80036;stroke-width:1.0;"/><rect fill="#FFFFFF" filter="url(#f18pq97bhgify9)" height="1093.8672" style="stroke:#A80036;stroke-width:1.0;" width="10" x="91" y="154.3828"/><rect fill="#FFFFFF" filter="url(#f18pq97bhgify9)" height="986.6016" style="stroke:#A80036;stroke-width:1.0;" width="10" x="222" y="193.5156"/><rect fill="#FFFFFF" filter="url(#f18pq97bhgify9)" height="30" style="stroke:#A80036;stroke-width:1.0;" width="10" x="222" y="1209.25"/><rect fill="#FFFFFF" filter="url(#f18pq97bhgify9)" height="922.1719" style="stroke:#A80036;stroke-width:1.0;" width="10" x="531" y="228.8125"/><rect fill="#FFFFFF" filter="url(#f18pq97bhgify9)" height="114.5625" style="stroke:#A80036;stroke-width:1.0;" width="10" x="536" y="265.9453"/><rect fill="#FFFFFF" filter="url(#f18pq97bhgify9)" height="114.5625" style="stroke:#A80036;stroke-width:1.0;" width="10" x="536" y="424.6406"/><rect fill="#FFFFFF" filter="url(#f18pq97bhgify9)" height="120.6289" style="stroke:#A80036;stroke-width:1.0;" width="10" x="536" y="589.4023"/><rect fill="#FFFFFF" filter="url(#f18pq97bhgify9)" height="114.5625" style="stroke:#A80036;stroke-width:1.0;" width="10" x="536" y="754.1641"/><rect fill="#FFFFFF" filter="url(#f18pq97bhgify9)" height="114.5625" style="stroke:#A80036;stroke-width:1.0;" width="10" x="536" y="912.8594"/><rect fill="#FFFFFF" filter="url(#f18pq97bhgify9)" height="35.2969" style="stroke:#A80036;stroke-width:1.0;" width="10" x="755" y="310.0781"/><rect fill="#FFFFFF" filter="url(#f18pq97bhgify9)" height="35.2969" style="stroke:#A80036;stroke-width:1.0;" width="10" x="925" y="468.7734"/><rect fill="#FFFFFF" filter="url(#f18pq97bhgify9)" height="35.2969" style="stroke:#A80036;stroke-width:1.0;" width="10" x="1105" y="639.6016"/><rect fill="#FFFFFF" filter="url(#f18pq97bhgify9)" height="35.2969" style="stroke:#A80036;stroke-width:1.0;" width="10" x="1309" y="798.2969"/><rect fill="#FFFFFF" filter="url(#f18pq97bhgify9)" height="35.2969" style="stroke:#A80036;stroke-width:1.0;" width="10" x="1492" y="956.9922"/><rect fill="#FFFFFF" filter="url(#f18pq97bhgify9)" height="48.2969" style="stroke:#A80036;stroke-width:1.0;" width="10" x="1674.5" y="1073.5547"/><polygon fill="#A80036" points="79,150.3828,89,154.3828,79,158.3828,83,154.3828" style="stroke:#A80036;stroke-width:1.0;"/><line style="stroke:#A80036;stroke-width:1.0;" x1="24" x2="85" y1="154.3828" y2="154.3828"/><text fill="#000000" font-family="monospace" font-size="13" lengthAdjust="spacing" text-decoration="underline" textLength="48" x="31" y="149.3169">main()</text><polygon fill="#A80036" points="169,179.5156,179,183.5156,169,187.5156,173,183.5156" style="stroke:#A80036;stroke-width:1.0;"/><line style="stroke:#A80036;stroke-width:1.0;" x1="101" x2="175" y1="183.5156" y2="183.5156"/><text fill="#000000" font-family="monospace" font-size="13" lengthAdjust="spacing" textLength="56" x="108" y="178.4497">&lt;&lt;new&gt;&gt;</text><rect fill="#FEFECE" filter="url(#f18pq97bhgify9)" height="30.2969" style="stroke:#A80036;stroke-width:1.5;" width="88" x="181" y="162.3828"/><text fill="#000000" font-family="sans-serif" font-size="14" lengthAdjust="spacing" textLength="74" x="188" y="182.3779">TicTacToe</text><polygon fill="#A80036" points="519,224.8125,529,228.8125,519,232.8125,523,228.8125" style="stroke:#A80036;stroke-width:1.0;"/><line style="stroke:#A80036;stroke-width:1.0;" x1="232" x2="525" y1="228.8125" y2="228.8125"/><text fill="#000000" font-family="monospace" font-size="13" lengthAdjust="spacing" text-decoration="underline" textLength="280" x="239" y="223.7466">gameController(level, auto1, auto2)</text><line style="stroke:#A80036;stroke-width:1.0;" x1="541" x2="588" y1="252.9453" y2="252.9453"/><line style="stroke:#A80036;stroke-width:1.0;" x1="588" x2="588" y1="252.9453" y2="265.9453"/><line style="stroke:#A80036;stroke-width:1.0;" x1="547" x2="588" y1="265.9453" y2="265.9453"/><polygon fill="#A80036" points="557,261.9453,547,265.9453,557,269.9453,553,265.9453" style="stroke:#A80036;stroke-width:1.0;"/><text fill="#000000" font-family="monospace" font-size="13" lengthAdjust="spacing" text-decoration="underline" textLength="128" x="553" y="247.8794">manualMoveSpec()</text><polygon fill="#A80036" points="650.5,296.0781,660.5,300.0781,650.5,304.0781,654.5,300.0781" style="stroke:#A80036;stroke-width:1.0;"/><line style="stroke:#A80036;stroke-width:1.0;" x1="546" x2="656.5" y1="300.0781" y2="300.0781"/><text fill="#000000" font-family="monospace" font-size="13" lengthAdjust="spacing" textLength="56" x="553" y="295.0122">&lt;&lt;new&gt;&gt;</text><rect fill="#FEFECE" filter="url(#f18pq97bhgify9)" height="30.2969" style="stroke:#A80036;stroke-width:1.5;" width="191" x="662.5" y="278.9453"/><text fill="#000000" font-family="sans-serif" font-size="14" lengthAdjust="spacing" textLength="177" x="669.5" y="298.9404">DefaultManualMoveSpec</text><polygon fill="#A80036" points="557,341.375,547,345.375,557,349.375,553,345.375" style="stroke:#A80036;stroke-width:1.0;"/><line style="stroke:#A80036;stroke-width:1.0;stroke-dasharray:2.0,2.0;" x1="551" x2="759" y1="345.375" y2="345.375"/><text fill="#000000" font-family="monospace" font-size="13" lengthAdjust="spacing" textLength="112" x="563" y="340.3091">manualMoveSpec</text><line style="stroke:#A80036;stroke-width:1.0;stroke-dasharray:2.0,2.0;" x1="546" x2="588" y1="379.5078" y2="379.5078"/><line style="stroke:#A80036;stroke-width:1.0;stroke-dasharray:2.0,2.0;" x1="588" x2="588" y1="379.5078" y2="392.5078"/><line style="stroke:#A80036;stroke-width:1.0;stroke-dasharray:2.0,2.0;" x1="541" x2="588" y1="392.5078" y2="392.5078"/><polygon fill="#A80036" points="551,388.5078,541,392.5078,551,396.5078,547,392.5078" style="stroke:#A80036;stroke-width:1.0;"/><text fill="#000000" font-family="monospace" font-size="13" lengthAdjust="spacing" textLength="112" x="553" y="374.4419">manualMoveSpec</text><line style="stroke:#A80036;stroke-width:1.0;" x1="541" x2="588" y1="411.6406" y2="411.6406"/><line style="stroke:#A80036;stroke-width:1.0;" x1="588" x2="588" y1="411.6406" y2="424.6406"/><line style="stroke:#A80036;stroke-width:1.0;" x1="547" x2="588" y1="424.6406" y2="424.6406"/><polygon fill="#A80036" points="557,420.6406,547,424.6406,557,428.6406,553,424.6406" style="stroke:#A80036;stroke-width:1.0;"/><text fill="#000000" font-family="monospace" font-size="13" lengthAdjust="spacing" text-decoration="underline" textLength="56" x="553" y="406.5747">board()</text><polygon fill="#A80036" points="855.5,454.7734,865.5,458.7734,855.5,462.7734,859.5,458.7734" style="stroke:#A80036;stroke-width:1.0;"/><line style="stroke:#A80036;stroke-width:1.0;" x1="546" x2="861.5" y1="458.7734" y2="458.7734"/><text fill="#000000" font-family="monospace" font-size="13" lengthAdjust="spacing" textLength="56" x="553" y="453.7075">&lt;&lt;new&gt;&gt;</text><rect fill="#FEFECE" filter="url(#f18pq97bhgify9)" height="30.2969" style="stroke:#A80036;stroke-width:1.5;" width="121" x="867.5" y="437.6406"/><text fill="#000000" font-family="sans-serif" font-size="14" lengthAdjust="spacing" textLength="107" x="874.5" y="457.6357">CountingBoard</text><polygon fill="#A80036" points="557,500.0703,547,504.0703,557,508.0703,553,504.0703" style="stroke:#A80036;stroke-width:1.0;"/><line style="stroke:#A80036;stroke-width:1.0;stroke-dasharray:2.0,2.0;" x1="551" x2="929" y1="504.0703" y2="504.0703"/><text fill="#000000" font-family="monospace" font-size="13" lengthAdjust="spacing" textLength="40" x="563" y="499.0044">board</text><line style="stroke:#A80036;stroke-width:1.0;stroke-dasharray:2.0,2.0;" x1="546" x2="588" y1="538.2031" y2="538.2031"/><line style="stroke:#A80036;stroke-width:1.0;stroke-dasharray:2.0,2.0;" x1="588" x2="588" y1="538.2031" y2="551.2031"/><line style="stroke:#A80036;stroke-width:1.0;stroke-dasharray:2.0,2.0;" x1="541" x2="588" y1="551.2031" y2="551.2031"/><polygon fill="#A80036" points="551,547.2031,541,551.2031,551,555.2031,547,551.2031" style="stroke:#A80036;stroke-width:1.0;"/><text fill="#000000" font-family="monospace" font-size="13" lengthAdjust="spacing" textLength="40" x="553" y="533.1372">board</text><line style="stroke:#A80036;stroke-width:1.0;" x1="541" x2="588" y1="576.4023" y2="576.4023"/><line style="stroke:#A80036;stroke-width:1.0;" x1="588" x2="588" y1="576.4023" y2="589.4023"/><line style="stroke:#A80036;stroke-width:1.0;" x1="547" x2="588" y1="589.4023" y2="589.4023"/><polygon fill="#A80036" points="557,585.4023,547,589.4023,557,593.4023,553,589.4023" style="stroke:#A80036;stroke-width:1.0;"/><text fill="#000000" font-family="monospace" font-size="13" lengthAdjust="spacing" text-decoration="underline" textLength="200" x="553" y="571.3364">autoPlayerStrategy(level)</text><path d="M293,559.2031 L293,599.2031 L522,599.2031 L522,569.2031 L512,559.2031 L293,559.2031 " fill="#FBFB77" filter="url(#f18pq97bhgify9)" style="stroke:#A80036;stroke-width:1.0;"/><path d="M512,559.2031 L512,569.2031 L522,569.2031 L512,559.2031 " fill="#FBFB77" style="stroke:#A80036;stroke-width:1.0;"/><text fill="#000000" font-family="sans-serif" font-size="13" lengthAdjust="spacing" textLength="208" x="299" y="576.27">Por ahora solo acepta nivel = 1,</text><text fill="#000000" font-family="sans-serif" font-size="13" lengthAdjust="spacing" textLength="200" x="303" y="591.4028">cualquier otro nivel es un error</text><polygon fill="#A80036" points="990.5,625.6016,1000.5,629.6016,990.5,633.6016,994.5,629.6016" style="stroke:#A80036;stroke-width:1.0;"/><line style="stroke:#A80036;stroke-width:1.0;" x1="546" x2="996.5" y1="629.6016" y2="629.6016"/><text fill="#000000" font-family="monospace" font-size="13" lengthAdjust="spacing" textLength="56" x="553" y="624.5356">&lt;&lt;new&gt;&gt;</text><rect fill="#FEFECE" filter="url(#f18pq97bhgify9)" height="30.2969" style="stroke:#A80036;stroke-width:1.5;" width="211" x="1002.5" y="608.4688"/><text fill="#000000" font-family="sans-serif" font-size="14" lengthAdjust="spacing" textLength="197" x="1009.5" y="628.4639">RandomAutoPlayerStrategy</text><polygon fill="#A80036" points="557,670.8984,547,674.8984,557,678.8984,553,674.8984" style="stroke:#A80036;stroke-width:1.0;"/><line style="stroke:#A80036;stroke-width:1.0;stroke-dasharray:2.0,2.0;" x1="551" x2="1109" y1="674.8984" y2="674.8984"/><text fill="#000000" font-family="monospace" font-size="13" lengthAdjust="spacing" textLength="64" x="563" y="669.8325">strategy</text><line style="stroke:#A80036;stroke-width:1.0;stroke-dasharray:2.0,2.0;" x1="546" x2="588" y1="709.0313" y2="709.0313"/><line style="stroke:#A80036;stroke-width:1.0;stroke-dasharray:2.0,2.0;" x1="588" x2="588" y1="709.0313" y2="722.0313"/><line style="stroke:#A80036;stroke-width:1.0;stroke-dasharray:2.0,2.0;" x1="541" x2="588" y1="722.0313" y2="722.0313"/><polygon fill="#A80036" points="551,718.0313,541,722.0313,551,726.0313,547,722.0313" style="stroke:#A80036;stroke-width:1.0;"/><text fill="#000000" font-family="monospace" font-size="13" lengthAdjust="spacing" textLength="64" x="553" y="703.9653">strategy</text><line style="stroke:#A80036;stroke-width:1.0;" x1="541" x2="588" y1="741.1641" y2="741.1641"/><line style="stroke:#A80036;stroke-width:1.0;" x1="588" x2="588" y1="741.1641" y2="754.1641"/><line style="stroke:#A80036;stroke-width:1.0;" x1="547" x2="588" y1="754.1641" y2="754.1641"/><polygon fill="#A80036" points="557,750.1641,547,754.1641,557,758.1641,553,754.1641" style="stroke:#A80036;stroke-width:1.0;"/><text fill="#000000" font-family="monospace" font-size="13" lengthAdjust="spacing" text-decoration="underline" textLength="128" x="553" y="736.0981">player(1, auto1)</text><polygon fill="#A80036" points="1215.5,784.2969,1225.5,788.2969,1215.5,792.2969,1219.5,788.2969" style="stroke:#A80036;stroke-width:1.0;"/><line style="stroke:#A80036;stroke-width:1.0;" x1="546" x2="1221.5" y1="788.2969" y2="788.2969"/><text fill="#000000" font-family="monospace" font-size="13" lengthAdjust="spacing" textLength="288" x="553" y="783.231">&lt;&lt;new&gt;&gt;(Token.X, auto1, "Jugador 1")</text><rect fill="#FEFECE" filter="url(#f18pq97bhgify9)" height="30.2969" style="stroke:#A80036;stroke-width:1.5;" width="169" x="1227.5" y="767.1641"/><text fill="#000000" font-family="sans-serif" font-size="14" lengthAdjust="spacing" textLength="155" x="1234.5" y="787.1592">player1:DefaultPlayer</text><polygon fill="#A80036" points="557,829.5938,547,833.5938,557,837.5938,553,833.5938" style="stroke:#A80036;stroke-width:1.0;"/><line style="stroke:#A80036;stroke-width:1.0;stroke-dasharray:2.0,2.0;" x1="551" x2="1313" y1="833.5938" y2="833.5938"/><text fill="#000000" font-family="monospace" font-size="13" lengthAdjust="spacing" textLength="56" x="563" y="828.5278">player1</text><line style="stroke:#A80036;stroke-width:1.0;stroke-dasharray:2.0,2.0;" x1="546" x2="588" y1="867.7266" y2="867.7266"/><line style="stroke:#A80036;stroke-width:1.0;stroke-dasharray:2.0,2.0;" x1="588" x2="588" y1="867.7266" y2="880.7266"/><line style="stroke:#A80036;stroke-width:1.0;stroke-dasharray:2.0,2.0;" x1="541" x2="588" y1="880.7266" y2="880.7266"/><polygon fill="#A80036" points="551,876.7266,541,880.7266,551,884.7266,547,880.7266" style="stroke:#A80036;stroke-width:1.0;"/><text fill="#000000" font-family="monospace" font-size="13" lengthAdjust="spacing" textLength="56" x="553" y="862.6606">player1</text><line style="stroke:#A80036;stroke-width:1.0;" x1="541" x2="588" y1="899.8594" y2="899.8594"/><line style="stroke:#A80036;stroke-width:1.0;" x1="588" x2="588" y1="899.8594" y2="912.8594"/><line style="stroke:#A80036;stroke-width:1.0;" x1="547" x2="588" y1="912.8594" y2="912.8594"/><polygon fill="#A80036" points="557,908.8594,547,912.8594,557,916.8594,553,912.8594" style="stroke:#A80036;stroke-width:1.0;"/><text fill="#000000" font-family="monospace" font-size="13" lengthAdjust="spacing" text-decoration="underline" textLength="128" x="553" y="894.7935">player(2, auto2)</text><polygon fill="#A80036" points="1398.5,942.9922,1408.5,946.9922,1398.5,950.9922,1402.5,946.9922" style="stroke:#A80036;stroke-width:1.0;"/><line style="stroke:#A80036;stroke-width:1.0;" x1="546" x2="1404.5" y1="946.9922" y2="946.9922"/><text fill="#000000" font-family="monospace" font-size="13" lengthAdjust="spacing" textLength="288" x="553" y="941.9263">&lt;&lt;new&gt;&gt;(Token.X, auto2, "Jugador 2")</text><rect fill="#FEFECE" filter="url(#f18pq97bhgify9)" height="30.2969" style="stroke:#A80036;stroke-width:1.5;" width="169" x="1410.5" y="925.8594"/><text fill="#000000" font-family="sans-serif" font-size="14" lengthAdjust="spacing" textLength="155" x="1417.5" y="945.8545">player2:DefaultPlayer</text><polygon fill="#A80036" points="557,988.2891,547,992.2891,557,996.2891,553,992.2891" style="stroke:#A80036;stroke-width:1.0;"/><line style="stroke:#A80036;stroke-width:1.0;stroke-dasharray:2.0,2.0;" x1="551" x2="1496" y1="992.2891" y2="992.2891"/><text fill="#000000" font-family="monospace" font-size="13" lengthAdjust="spacing" textLength="56" x="563" y="987.2231">player2</text><line style="stroke:#A80036;stroke-width:1.0;stroke-dasharray:2.0,2.0;" x1="546" x2="588" y1="1026.4219" y2="1026.4219"/><line style="stroke:#A80036;stroke-width:1.0;stroke-dasharray:2.0,2.0;" x1="588" x2="588" y1="1026.4219" y2="1039.4219"/><line style="stroke:#A80036;stroke-width:1.0;stroke-dasharray:2.0,2.0;" x1="541" x2="588" y1="1039.4219" y2="1039.4219"/><polygon fill="#A80036" points="551,1035.4219,541,1039.4219,551,1043.4219,547,1039.4219" style="stroke:#A80036;stroke-width:1.0;"/><text fill="#000000" font-family="monospace" font-size="13" lengthAdjust="spacing" textLength="56" x="553" y="1021.356">player2</text><polygon fill="#A80036" points="1581.5,1059.5547,1591.5,1063.5547,1581.5,1067.5547,1585.5,1063.5547" style="stroke:#A80036;stroke-width:1.0;"/><line style="stroke:#A80036;stroke-width:1.0;" x1="541" x2="1587.5" y1="1063.5547" y2="1063.5547"/><text fill="#000000" font-family="monospace" font-size="13" lengthAdjust="spacing" textLength="464" x="548" y="1058.4888">&lt;&lt;new&gt;&gt;(manualMoveSpec, board, strategy, player1, player2)</text><text fill="#000000" font-family="sans-serif" font-size="14" lengthAdjust="spacing" textLength="166" x="1593.5" y="1087.417">DefaultGameController</text><ellipse cx="1679.5" cy="1058.4219" fill="#FEFECE" filter="url(#f18pq97bhgify9)" rx="12" ry="12" style="stroke:#A80036;stroke-width:2.0;"/><polygon fill="#A80036" points="1675.5,1046.4219,1681.5,1041.4219,1679.5,1046.4219,1681.5,1051.4219,1675.5,1046.4219" style="stroke:#A80036;stroke-width:1.0;"/><polygon fill="#A80036" points="552,1117.8516,542,1121.8516,552,1125.8516,548,1121.8516" style="stroke:#A80036;stroke-width:1.0;"/><line style="stroke:#A80036;stroke-width:1.0;stroke-dasharray:2.0,2.0;" x1="546" x2="1678.5" y1="1121.8516" y2="1121.8516"/><text fill="#000000" font-family="monospace" font-size="13" lengthAdjust="spacing" textLength="80" x="558" y="1116.7856">controller</text><polygon fill="#A80036" points="243,1146.9844,233,1150.9844,243,1154.9844,239,1150.9844" style="stroke:#A80036;stroke-width:1.0;"/><line style="stroke:#A80036;stroke-width:1.0;stroke-dasharray:2.0,2.0;" x1="237" x2="535" y1="1150.9844" y2="1150.9844"/><text fill="#000000" font-family="monospace" font-size="13" lengthAdjust="spacing" textLength="80" x="249" y="1145.9185">controller</text><polygon fill="#A80036" points="112,1176.1172,102,1180.1172,112,1184.1172,108,1180.1172" style="stroke:#A80036;stroke-width:1.0;"/><line style="stroke:#A80036;stroke-width:1.0;stroke-dasharray:2.0,2.0;" x1="106" x2="226" y1="1180.1172" y2="1180.1172"/><text fill="#000000" font-family="monospace" font-size="13" lengthAdjust="spacing" textLength="72" x="118" y="1175.0513">ticTacToe</text><polygon fill="#A80036" points="210,1205.25,220,1209.25,210,1213.25,214,1209.25" style="stroke:#A80036;stroke-width:1.0;"/><line style="stroke:#A80036;stroke-width:1.0;" x1="101" x2="216" y1="1209.25" y2="1209.25"/><text fill="#000000" font-family="monospace" font-size="13" lengthAdjust="spacing" textLength="56" x="108" y="1204.1841">start()</text><!--MD5=[990227ad294d805f763c4ca3cdd7d7d6]
@startuml

title "TicTacToe start game"

autoactivate on
actor User
boundary "TicTacToe" as Main

User -> Main : ""__main()__""
create TicTacToe
Main -> TicTacToe : ""<<new>>""
    participant ComponentFactory as Factory
    TicTacToe -> Factory: ""__gameController(level, auto1, auto2)__""
        Factory -> Factory: ""__manualMoveSpec()__""
            create DefaultManualMoveSpec
            Factory -> DefaultManualMoveSpec: ""<<new>>""
                return ""manualMoveSpec""
            return ""manualMoveSpec""

        Factory -> Factory: ""__board()__""
            create CountingBoard
            Factory -> CountingBoard: ""<<new>>""
                return ""board""
            return ""board""

        Factory -> Factory: ""__autoPlayerStrategy(level)__""
            note left : Por ahora solo acepta nivel = 1,\n cualquier otro nivel es un error
            create RandomAutoPlayerStrategy as Strategy
            Factory -> Strategy: ""<<new>>""
                return ""strategy""
            return ""strategy""

        Factory -> Factory: ""__player(1, auto1)__""
            create "player1:DefaultPlayer" as P1
            Factory -> P1: ""<<new>>(Token.X, auto1, "Jugador 1")""
                return ""player1""
            return ""player1""

        Factory -> Factory: ""__player(2, auto2)__""
            create "player2:DefaultPlayer" as P2
            Factory -> P2: ""<<new>>(Token.X, auto2, "Jugador 2")""
                return ""player2""
            return ""player2""


    create control DefaultGameController as Cx
    Factory -> Cx: ""<<new>>(manualMoveSpec, board, strategy, player1, player2)""
    return ""controller""
    return ""controller""
    return ""ticTacToe""

Main -> TicTacToe: ""start()""
deactivate TicTacToe

@enduml

PlantUML version 1.2021.7(Sun May 23 06:40:07 CST 2021)
(GPL source distribution)
Java Runtime: OpenJDK Runtime Environment
JVM: OpenJDK 64-Bit Server VM
Default Encoding: UTF-8
Language: en
Country: US
--></g></svg>